<?xml version="1.0" standalone="no"?>
<!DOCTYPE svg PUBLIC "-//W3C//DTD SVG 20010904//EN"
 "http://www.w3.org/TR/2001/REC-SVG-20010904/DTD/svg10.dtd">
<svg version="1.0" xmlns="http://www.w3.org/2000/svg"
 width="4267.000000pt" height="4267.000000pt" viewBox="0 0 4267.000000 4267.000000"
 preserveAspectRatio="xMidYMid meet">
<metadata>
Created by potrace 1.16, written by Peter Selinger 2001-2019
</metadata>
<g transform="translate(0.000000,4267.000000) scale(0.100000,-0.100000)"
fill="#7A6050" stroke="none">
<path d="M38110 37493 c-190 -19 -359 -40 -595 -73 -294 -41 -846 -111 -1425
-180 -190 -23 -777 -97 -1305 -165 -528 -68 -1167 -149 -1420 -180 -788 -95
-942 -115 -1230 -156 -667 -94 -1211 -199 -1840 -356 -581 -144 -1413 -310
-2270 -452 -644 -107 -940 -146 -1440 -191 -754 -68 -1850 -174 -2115 -205
-288 -34 -1341 -102 -2405 -155 -1432 -72 -1894 -111 -2220 -190 -279 -67
-374 -122 -705 -406 -564 -484 -820 -648 -1645 -1055 -637 -314 -1170 -558
-1930 -884 -839 -360 -906 -396 -1175 -635 -374 -333 -1191 -903 -1990 -1390
-236 -144 -563 -357 -850 -555 -216 -149 -382 -251 -572 -351 -229 -121 -444
-248 -647 -381 l-174 -114 5 -102 c4 -83 10 -114 31 -160 77 -168 310 -293
657 -353 149 -25 527 -30 725 -9 287 30 620 93 815 155 52 16 95 28 97 27 4
-5 -98 -135 -182 -232 -228 -261 -479 -521 -1089 -1130 -476 -475 -683 -688
-738 -761 l-77 -101 40 -89 c41 -92 88 -151 166 -205 111 -77 314 -155 479
-184 606 -106 1389 302 2364 1230 233 222 529 486 620 555 25 18 59 46 75 61
17 15 36 29 44 31 8 2 30 20 49 41 19 21 37 35 40 33 6 -7 -59 -95 -128 -176
-31 -36 -103 -144 -160 -240 -232 -392 -508 -768 -798 -1086 -243 -266 -417
-484 -485 -605 -20 -35 -59 -115 -86 -177 l-51 -114 22 -51 c48 -114 105 -170
232 -227 113 -51 213 -71 391 -77 328 -11 553 59 861 266 486 326 966 863
1388 1552 104 171 390 493 757 854 206 202 326 305 355 305 26 0 7 -62 -110
-350 -42 -102 -116 -311 -167 -465 -274 -842 -365 -1111 -410 -1210 -151 -326
-201 -478 -203 -620 -1 -107 16 -145 90 -194 155 -102 520 -74 789 62 103 51
206 127 309 226 212 206 382 457 626 922 203 387 281 526 339 600 l36 45 115
-47 c239 -99 498 -111 899 -43 384 64 972 232 1356 387 279 112 476 208 1215
595 1097 575 1946 895 2825 1065 356 70 589 96 1160 132 1352 86 1669 116
1957 186 777 189 1429 519 2183 1103 155 120 415 336 652 542 l172 150 319 92
c510 148 679 188 1208 281 1056 187 1596 218 4674 266 1741 28 1727 28 1747
47 25 25 9 36 -72 47 -204 29 -613 36 -2045 36 -2139 0 -2574 -19 -3569 -156
-852 -117 -1507 -247 -1902 -379 -84 -28 -157 -49 -162 -47 -15 5 131 162 237
255 256 226 569 438 862 585 213 107 331 149 502 180 96 18 156 44 160 71 4
18 -2 18 -95 14 -188 -10 -464 -88 -666 -188 -328 -163 -593 -355 -935 -678
-1007 -950 -1685 -1458 -2342 -1755 -453 -204 -785 -310 -1180 -376 -336 -56
-619 -80 -1400 -121 -1203 -63 -1640 -134 -2375 -384 -818 -278 -1490 -574
-2330 -1026 -806 -434 -1092 -544 -1930 -740 -299 -70 -577 -130 -603 -130
-17 1 21 17 323 135 427 168 703 350 780 517 56 121 16 298 -120 524 -71 116
-131 194 -257 327 l-112 120 -145 -6 c-157 -6 -233 -20 -409 -73 -167 -51
-277 -96 -474 -195 -98 -49 -183 -89 -188 -89 -56 0 244 234 630 491 290 193
478 307 792 478 952 520 1359 714 2108 1005 615 239 724 282 924 368 487 208
801 386 1101 624 121 96 609 579 722 714 118 141 158 210 124 210 -18 0 -181
-149 -416 -380 -326 -321 -405 -385 -435 -354 -19 21 -31 131 -30 301 0 223
19 366 62 469 19 45 28 80 23 91 -6 16 -11 13 -38 -18 -52 -60 -96 -158 -119
-265 -29 -138 -31 -428 -4 -524 36 -124 35 -130 -28 -187 -31 -29 -80 -63
-109 -78 -89 -43 -79 -51 -401 304 -293 324 -366 407 -462 526 -263 326 -429
604 -519 865 -25 74 -50 139 -54 143 -5 5 -14 -20 -20 -55 -17 -99 11 -193
124 -418 98 -195 223 -389 380 -590 99 -127 175 -236 175 -252 0 -5 -8 -4 -19
1 -21 12 -417 127 -776 226 -392 109 -647 194 -1023 341 -90 35 -172 64 -183
64 -61 0 38 -92 166 -154 227 -111 569 -228 1140 -390 550 -156 718 -217 852
-307 26 -17 137 -120 245 -227 l197 -196 -82 -49 c-224 -136 -796 -379 -1861
-790 l-449 -173 -79 13 c-109 19 -197 52 -378 143 -171 85 -337 181 -446 258
-53 38 -79 65 -102 104 -41 74 -139 195 -246 306 -98 101 -151 141 -168 124
-20 -20 22 -81 245 -358 48 -60 100 -133 114 -163 39 -78 116 -134 435 -315
76 -43 136 -82 133 -86 -2 -4 15 -13 38 -20 61 -18 157 -68 164 -85 3 -10 20
-15 52 -15 57 -1 51 -4 -109 -70 -138 -57 -257 -115 -350 -172 -36 -22 -189
-108 -340 -191 -151 -82 -337 -186 -412 -231 -75 -45 -190 -110 -254 -146
-151 -83 -459 -287 -640 -422 -303 -227 -562 -464 -663 -608 -81 -115 -96
-178 -95 -385 1 -219 21 -303 131 -527 l76 -157 -50 -68 c-55 -74 -160 -261
-328 -583 -138 -266 -238 -431 -351 -583 -271 -363 -538 -543 -857 -579 -150
-17 -218 3 -356 102 l-21 15 22 80 c13 44 42 116 65 160 123 231 172 361 304
815 225 769 373 1189 534 1515 99 199 159 284 247 345 35 24 106 85 158 135
54 51 147 124 215 169 123 81 185 132 185 151 0 15 140 150 245 235 142 115
392 380 380 401 -15 23 -13 24 -267 -192 -62 -52 -149 -122 -193 -156 -44 -33
-120 -97 -170 -142 -113 -104 -212 -180 -345 -267 -58 -37 -143 -102 -190
-144 -128 -113 -430 -340 -453 -340 -4 0 -12 18 -18 41 -15 50 -46 70 -66 43
-7 -10 -13 -26 -13 -37 0 -25 -16 -54 -57 -101 -18 -22 -33 -45 -33 -51 0 -16
-682 -691 -765 -757 -85 -68 -123 -88 -161 -85 -27 2 -29 0 -26 -33 9 -129 7
-143 -32 -220 -51 -100 -130 -215 -306 -449 -221 -294 -342 -434 -585 -677
-297 -299 -446 -414 -665 -518 -201 -95 -368 -131 -565 -123 -147 6 -213 21
-332 77 -147 68 -211 151 -184 239 18 61 91 151 188 230 48 40 119 98 157 129
37 31 104 98 148 147 80 90 109 132 283 407 51 80 160 245 243 365 195 283
317 473 517 809 90 150 205 334 254 408 120 178 132 188 702 555 178 115 303
211 488 377 68 60 164 140 214 178 51 38 151 129 222 202 146 151 118 135 453
259 221 82 353 142 472 217 58 37 160 90 225 119 162 70 246 112 441 224 91
53 184 105 205 116 39 19 51 43 27 52 -7 2 -38 -6 -68 -19 -30 -12 -82 -32
-115 -45 -33 -12 -206 -86 -385 -164 -179 -78 -354 -154 -390 -168 -301 -118
-386 -154 -460 -196 -204 -115 -320 -155 -320 -112 0 24 -25 34 -40 16 -8 -10
-10 -31 -5 -63 l6 -49 -106 -96 c-58 -53 -179 -151 -268 -219 -89 -67 -184
-140 -212 -163 -27 -23 -156 -111 -285 -197 -129 -86 -323 -221 -430 -300
-107 -79 -226 -166 -265 -193 -38 -26 -81 -59 -95 -71 l-25 -23 -48 37 c-38
29 -49 45 -54 75 -6 42 -25 56 -48 37 -12 -10 -15 -36 -15 -114 0 -55 4 -108
9 -115 6 -10 4 -27 -6 -50 -8 -20 -16 -45 -18 -56 -5 -26 -132 -147 -265 -255
-136 -109 -415 -359 -605 -541 -215 -205 -362 -338 -532 -480 -549 -459 -1020
-718 -1428 -784 -169 -28 -451 -15 -555 24 -117 45 -300 201 -324 277 -6 19 5
30 66 74 122 89 236 187 401 350 215 210 367 393 367 441 0 29 160 216 600
704 129 143 312 348 406 455 94 107 198 220 230 250 81 75 210 161 387 258
183 101 320 187 440 274 50 37 196 130 322 206 375 226 706 410 1824 1012
l434 234 296 37 c670 84 935 141 1361 294 322 115 680 268 810 344 36 21 97
55 136 74 l71 36 224 -89 c450 -178 726 -240 1070 -240 322 0 557 44 1064 200
346 106 479 128 780 131 l200 2 244 -121 c134 -67 247 -119 250 -116 3 3 -35
45 -84 92 -181 173 -380 231 -750 219 -264 -9 -452 -42 -817 -146 -117 -34
-269 -72 -338 -86 -495 -100 -964 -76 -1342 70 -110 43 -368 165 -368 175 0 4
62 55 138 113 170 131 310 256 373 333 63 76 66 114 6 82 -24 -12 -151 -107
-233 -173 -407 -330 -1210 -724 -1812 -889 -421 -116 -1054 -203 -1327 -183
-18 1 -29 -3 -28 -10 7 -33 -156 -136 -517 -326 -623 -328 -1016 -536 -1170
-620 -209 -113 -618 -323 -648 -332 -35 -10 -77 28 -128 116 -26 44 -48 78
-50 76 -2 -1 8 -68 21 -148 14 -79 25 -147 25 -151 0 -14 -225 -191 -330 -261
-120 -79 -383 -212 -544 -276 -481 -188 -995 -293 -1441 -294 -282 0 -485 35
-654 114 -136 63 -191 135 -191 250 l0 64 215 108 c118 60 268 144 333 187
105 70 408 306 552 430 139 119 470 344 820 555 821 498 1719 1120 2122 1472
276 242 442 344 793 487 632 259 2080 921 2705 1237 463 233 921 548 1350 929
248 219 371 286 633 344 369 83 833 118 2962 226 1365 69 1536 82 2750 214
477 52 727 76 1175 111 587 47 679 59 1375 181 951 167 1295 238 2216 453
1068 250 1501 324 2604 446 605 67 1110 129 1587 195 196 27 700 95 1120 150
1394 184 2157 298 2507 376 150 34 188 52 145 68 -16 6 -171 6 -234 -1z
m-27011 -7651 c-49 -35 -189 -121 -368 -226 -101 -59 -233 -139 -295 -178 -99
-63 -107 -66 -76 -33 61 65 381 266 655 411 94 50 137 64 84 26z m8115 -956
c131 -151 203 -253 269 -383 67 -132 102 -239 94 -294 -7 -50 -46 -132 -87
-181 -67 -80 -347 -242 -615 -355 -178 -75 -340 -127 -527 -169 l-168 -38 -94
38 c-181 71 -282 160 -357 313 -62 127 -91 255 -87 379 3 89 7 107 36 167 55
110 187 208 482 356 317 158 601 256 785 270 185 15 157 25 269 -103z m-8005
-1482 c-90 -130 -406 -429 -522 -495 l-41 -22 24 34 c60 84 573 579 587 565 3
-2 -19 -40 -48 -82z m2039 -806 c-13 -24 -76 -97 -142 -163 -79 -79 -102 -100
-70 -60 74 92 225 265 230 265 3 0 -5 -19 -18 -42z"/>
<path d="M19490 30900 c0 -5 7 -10 16 -10 8 0 12 5 9 10 -3 6 -10 10 -16 10
-5 0 -9 -4 -9 -10z"/>
<path d="M16143 30649 c-17 -17 -5 -43 13 -28 15 12 19 39 6 39 -4 0 -13 -5
-19 -11z"/>
<path d="M20180 30421 c0 -16 25 -28 44 -21 17 6 16 8 -12 18 -18 6 -32 7 -32
3z"/>
<path d="M28970 18128 c-149 -26 -371 -99 -533 -176 l-129 -61 -181 46 c-167
42 -195 46 -334 50 -396 13 -767 -93 -1137 -321 -195 -121 -310 -208 -683
-519 l-262 -218 -578 -193 c-974 -326 -1299 -461 -1674 -692 l-146 -91 -339
-7 c-348 -7 -721 -25 -1039 -51 -422 -35 -486 -37 -800 -32 -415 7 -659 36
-1046 122 -694 155 -1368 441 -2334 992 -566 322 -944 486 -1745 758 -774 262
-1022 307 -1835 335 -376 13 -1086 13 -1251 0 -391 -30 -665 -101 -1094 -280
-240 -100 -430 -164 -667 -224 -596 -152 -823 -290 -2518 -1532 -617 -452
-784 -573 -2315 -1668 -1674 -1196 -2050 -1475 -2050 -1517 0 -22 45 -4 151
59 525 313 2385 1627 4558 3220 1057 775 1346 971 1646 1116 156 76 266 117
481 181 104 31 196 58 204 61 31 10 -311 -294 -410 -364 -109 -78 -394 -380
-671 -711 -121 -145 -165 -208 -155 -218 14 -14 63 30 378 342 767 761 1201
1078 1705 1245 232 77 445 118 788 152 180 18 1262 18 1470 0 563 -49 972
-131 1470 -296 694 -231 1220 -461 1791 -784 815 -462 1346 -705 1884 -865
389 -115 623 -162 1215 -242 l400 -53 345 28 c633 53 782 61 1160 67 403 6
618 -4 816 -37 164 -28 764 -204 1263 -370 332 -111 355 -102 -239 -95 -523 7
-610 3 -710 -30 -69 -23 -138 -81 -223 -190 l-78 -100 6 -265 c10 -480 44
-650 153 -763 73 -77 132 -96 320 -106 179 -10 193 -18 87 -46 -64 -16 -183
-32 -515 -65 -275 -28 -606 -74 -1269 -176 -305 -47 -559 -83 -566 -80 -7 2
-49 50 -94 105 -83 104 -131 185 -131 221 0 39 -28 90 -49 90 -37 0 -42 -30
-17 -121 24 -93 46 -129 154 -259 39 -47 70 -86 69 -87 -3 -2 -390 24 -472 32
-232 24 -589 100 -1180 254 l-420 109 -380 11 c-712 21 -988 15 -1250 -30
-354 -59 -1057 -237 -1120 -283 -17 -12 -18 -16 -5 -31 22 -27 149 -14 385 41
706 161 1067 204 1607 190 481 -12 733 -53 1530 -247 489 -119 610 -140 865
-146 309 -9 422 3 1318 137 1165 174 1405 204 2010 255 689 58 673 53 955 270
98 75 209 136 294 160 32 10 111 39 175 65 207 85 356 154 1011 465 407 193
776 356 1030 455 181 70 475 227 820 438 406 249 621 367 831 461 346 153 591
206 1000 218 299 9 462 -17 645 -102 209 -96 402 -272 379 -344 -14 -45 -224
-199 -776 -572 -222 -149 -557 -377 -744 -504 -515 -352 -820 -542 -1335 -830
-707 -396 -1040 -606 -1590 -1006 -478 -348 -688 -473 -975 -584 -162 -63
-268 -91 -930 -244 -1836 -426 -2146 -504 -2530 -634 -343 -116 -554 -203
-950 -394 -643 -310 -788 -364 -1037 -388 -149 -14 -498 33 -897 121 -297 66
-586 137 -1581 389 -2805 712 -3818 928 -4780 1021 -120 12 -322 17 -735 21
l-570 5 -160 -67 c-468 -194 -1182 -595 -1703 -958 -257 -178 -363 -270 -857
-742 -1447 -1384 -4734 -4651 -4936 -4906 -42 -53 -20 -56 43 -7 224 175 763
696 2928 2833 1537 1517 1765 1739 2150 2090 576 525 902 761 1585 1149 664
377 997 480 1555 479 327 -1 638 -33 1260 -129 1107 -171 1608 -280 3890 -849
1335 -333 1718 -424 2068 -495 344 -69 432 -81 632 -87 313 -9 409 22 1145
380 518 251 721 334 1057 431 611 178 1682 445 2622 656 863 193 976 245 1751
797 633 451 892 615 1635 1038 608 346 999 590 1361 848 123 88 406 280 629
428 593 393 665 444 761 539 66 65 89 96 102 134 37 108 19 167 -82 266 -118
117 -245 198 -448 286 -18 7 -33 18 -33 23 0 12 184 134 395 261 467 281 722
477 786 602 25 49 24 113 -2 163 -31 59 -133 159 -225 221 -288 192 -693 288
-1091 256 -186 -14 -266 -30 -526 -98 l-208 -55 -107 99 c-137 126 -197 170
-307 227 -114 58 -247 101 -392 125 -157 27 -412 26 -573 -2z m473 -119 c218
-19 380 -75 560 -192 102 -67 160 -120 155 -144 -4 -25 -78 -72 -318 -203
-482 -265 -899 -531 -1465 -935 -726 -519 -901 -612 -1510 -810 -501 -162
-707 -255 -1035 -465 -119 -76 -211 -124 -256 -134 -26 -6 -44 1 -110 42 -43
27 -185 106 -314 177 -129 70 -238 130 -242 134 -4 4 59 27 140 51 289 87 722
335 1354 777 369 258 636 459 978 738 360 295 891 670 1120 794 179 96 489
167 785 179 22 1 93 -3 158 -9z m-1420 -182 c54 -8 101 -17 104 -20 17 -18
-60 -86 -227 -202 -130 -90 -259 -188 -570 -435 -816 -649 -1560 -1159 -2067
-1417 -125 -63 -209 -97 -360 -146 l-198 -64 -160 54 c-228 76 -519 162 -825
241 l-265 70 75 35 c41 19 172 81 290 137 573 272 1102 470 1876 700 68 20 84
31 335 242 484 405 737 577 1024 699 304 129 599 161 968 106z m3857 -236
c283 -143 381 -213 435 -309 l26 -47 -33 -28 c-206 -175 -431 -322 -1028 -674
l-255 -151 -330 -5 c-265 -5 -352 -10 -440 -25 -418 -75 -755 -229 -1489 -685
-404 -250 -690 -400 -951 -497 -270 -102 -577 -239 -1131 -508 -570 -277 -833
-395 -927 -417 -34 -8 -63 -13 -65 -11 -2 2 9 46 23 97 21 73 28 124 32 229 6
159 -5 218 -69 353 -23 48 -39 89 -37 91 11 9 325 199 394 238 219 124 388
193 810 333 357 118 497 172 682 260 220 105 440 243 778 487 978 705 1579
1046 2236 1268 296 101 289 100 754 97 l400 -2 185 -94z m-7280 -2377 c202
-19 482 -59 593 -85 222 -52 382 -197 441 -398 20 -69 21 -199 1 -276 -65
-253 -286 -491 -511 -550 -87 -22 -334 -29 -629 -16 -453 20 -699 46 -745 79
-91 68 -147 265 -157 553 -8 255 20 443 84 562 44 79 129 108 403 136 58 6
119 13 135 15 43 6 206 -3 385 -20z"/>
</g>
</svg>
