<svg width="6632" height="6383" viewBox="0 0 6632 6383" fill="none" xmlns="http://www.w3.org/2000/svg">
<g clip-path="url(#clip0_3_2)">
<rect width="6632" height="6383" fill="#F5F0E8"/>
<path d="M5923.26 774.426C5893.73 777.269 5867.46 780.41 5830.78 785.346C5785.09 791.48 5699.29 801.951 5609.3 812.273C5579.77 815.713 5488.54 826.783 5406.47 836.955C5324.41 847.127 5225.09 859.244 5185.77 863.881C5063.29 878.092 5039.36 881.084 4994.59 887.217C4890.93 901.279 4806.37 916.986 4708.61 940.471C4618.31 962.012 4489 986.844 4355.8 1008.09C4255.7 1024.09 4209.7 1029.93 4131.98 1036.66C4014.79 1046.83 3844.45 1062.69 3803.26 1067.32C3758.5 1072.41 3594.83 1082.58 3429.46 1090.51C3206.89 1101.28 3135.09 1107.11 3084.42 1118.93C3041.05 1128.95 3026.29 1137.18 2974.84 1179.67C2887.18 1252.07 2847.39 1276.6 2719.17 1337.48C2620.16 1384.45 2537.32 1420.95 2419.2 1469.72C2288.79 1523.57 2278.38 1528.96 2236.57 1564.71C2178.44 1614.52 2051.46 1699.79 1927.27 1772.64C1890.59 1794.18 1839.77 1826.04 1795.16 1855.66C1761.59 1877.95 1735.79 1893.21 1706.26 1908.17C1670.67 1926.27 1637.25 1945.27 1605.7 1965.16L1578.66 1982.22L1579.43 1997.47C1580.05 2009.89 1580.99 2014.53 1584.25 2021.41C1596.22 2046.54 1632.43 2065.24 1686.37 2074.21C1709.52 2077.95 1768.27 2078.7 1799.05 2075.56C1843.66 2071.07 1895.41 2061.65 1925.72 2052.37C1933.8 2049.98 1940.49 2048.18 1940.8 2048.33C1941.42 2049.08 1925.57 2068.53 1912.51 2083.04C1877.07 2122.08 1838.06 2160.98 1743.25 2252.08C1669.27 2323.13 1637.1 2354.99 1628.55 2365.91L1616.58 2381.02L1622.8 2394.34C1629.17 2408.1 1636.47 2416.92 1648.6 2425C1665.85 2436.52 1697.4 2448.19 1723.05 2452.53C1817.23 2468.38 1938.93 2407.35 2090.47 2268.53C2126.69 2235.32 2172.69 2195.83 2186.84 2185.51C2190.72 2182.82 2196.01 2178.63 2198.49 2176.38C2201.13 2174.14 2204.09 2172.04 2205.33 2171.75C2206.57 2171.45 2209.99 2168.75 2212.95 2165.61C2215.9 2162.47 2218.7 2160.38 2219.16 2160.68C2220.1 2161.72 2209.99 2174.89 2199.27 2187C2194.45 2192.39 2183.26 2208.54 2174.4 2222.91C2138.34 2281.54 2095.45 2337.79 2050.37 2385.36C2012.6 2425.15 1985.56 2457.76 1974.99 2475.86C1971.88 2481.1 1965.82 2493.06 1961.62 2502.34L1953.7 2519.39L1957.12 2527.02C1964.58 2544.07 1973.44 2552.45 1993.18 2560.98C2010.74 2568.61 2026.28 2571.6 2053.95 2572.5C2104.93 2574.14 2139.9 2563.67 2187.77 2532.71C2263.3 2483.94 2337.91 2403.61 2403.5 2300.54C2419.66 2274.96 2464.11 2226.79 2521.16 2172.79C2553.17 2142.58 2571.82 2127.17 2576.33 2127.17C2580.37 2127.17 2577.42 2136.44 2559.23 2179.52C2552.71 2194.78 2541.2 2226.05 2533.28 2249.08C2490.69 2375.04 2476.55 2415.28 2469.55 2430.09C2446.08 2478.85 2438.31 2501.59 2438 2522.83C2437.85 2538.84 2440.49 2544.52 2451.99 2551.85C2476.08 2567.11 2532.81 2562.92 2574.62 2542.58C2590.63 2534.95 2606.64 2523.58 2622.65 2508.77C2655.6 2477.96 2682.02 2440.41 2719.94 2370.85C2751.5 2312.96 2763.62 2292.17 2772.63 2281.1L2778.23 2274.36L2796.1 2281.39C2833.25 2296.2 2873.5 2298 2935.83 2287.83C2995.51 2278.25 3086.9 2253.12 3146.59 2229.94C3189.95 2213.18 3220.57 2198.82 3335.43 2140.93C3505.93 2054.92 3637.89 2007.05 3774.51 1981.62C3829.84 1971.15 3866.05 1967.26 3954.8 1961.87C4164.93 1949.01 4214.2 1944.52 4258.97 1934.05C4379.73 1905.77 4481.07 1856.41 4598.26 1769.05C4622.35 1751.1 4662.76 1718.79 4699.6 1687.97L4726.33 1665.53L4775.91 1651.77C4855.18 1629.63 4881.44 1623.65 4963.66 1609.74C5127.79 1581.76 5211.72 1577.13 5690.12 1569.95C5960.72 1565.76 5958.54 1565.76 5961.65 1562.91C5965.54 1559.17 5963.05 1557.53 5950.46 1555.88C5918.75 1551.55 5855.18 1550.5 5632.62 1550.5C5300.16 1550.5 5232.55 1553.34 5077.9 1573.83C4945.48 1591.34 4843.68 1610.78 4782.28 1630.53C4769.23 1634.72 4757.88 1637.86 4757.1 1637.56C4754.77 1636.81 4777.46 1613.33 4793.94 1599.41C4833.73 1565.61 4882.38 1533.89 4927.92 1511.9C4961.02 1495.9 4979.36 1489.62 5005.94 1484.98C5020.86 1482.29 5030.19 1478.4 5030.81 1474.36C5031.43 1471.66 5030.5 1471.66 5016.04 1472.26C4986.82 1473.76 4943.93 1485.43 4912.53 1500.39C4861.55 1524.77 4820.36 1553.49 4767.21 1601.81C4610.69 1743.92 4505.32 1819.91 4403.2 1864.34C4332.79 1894.85 4281.19 1910.71 4219.8 1920.58C4167.58 1928.96 4123.59 1932.55 4002.2 1938.68C3815.23 1948.11 3747.31 1958.73 3633.07 1996.13C3505.93 2037.71 3401.48 2081.99 3270.93 2149.61C3145.65 2214.53 3101.2 2230.98 2970.96 2260.3C2924.48 2270.77 2881.28 2279.75 2877.23 2279.75C2874.59 2279.6 2880.5 2277.21 2927.44 2259.55C2993.8 2234.42 3036.7 2207.2 3048.67 2182.22C3057.37 2164.12 3051.16 2137.64 3030.02 2103.83C3018.98 2086.48 3009.66 2074.81 2990.07 2054.92L2972.67 2036.97L2950.13 2037.86C2925.73 2038.76 2913.91 2040.85 2886.56 2048.78C2860.6 2056.41 2843.51 2063.14 2812.89 2077.95C2797.66 2085.28 2784.45 2091.27 2783.67 2091.27C2774.96 2091.27 2821.59 2056.26 2881.59 2017.82C2926.66 1988.95 2955.88 1971.89 3004.68 1946.31C3152.65 1868.53 3215.91 1839.51 3332.32 1795.98C3427.91 1760.22 3444.85 1753.79 3475.93 1740.93C3551.63 1709.81 3600.43 1683.18 3647.06 1647.58C3665.86 1633.22 3741.71 1560.97 3759.27 1540.78C3777.61 1519.68 3783.83 1509.36 3778.55 1509.36C3775.75 1509.36 3750.41 1531.65 3713.89 1566.21C3663.22 1614.22 3650.94 1623.8 3646.28 1619.16C3643.33 1616.02 3641.46 1599.56 3641.62 1574.13C3641.62 1540.78 3644.57 1519.38 3651.25 1503.98C3654.21 1497.24 3655.6 1492.01 3654.83 1490.36C3653.9 1487.97 3653.12 1488.42 3648.92 1493.06C3640.84 1502.03 3634 1516.69 3630.43 1532.7C3625.92 1553.34 3625.61 1596.72 3629.8 1611.08C3635.4 1629.63 3635.24 1630.53 3625.45 1639.06C3620.63 1643.39 3613.02 1648.48 3608.51 1650.72C3594.68 1657.16 3596.23 1658.35 3546.19 1605.25C3500.65 1556.78 3489.3 1544.37 3474.38 1526.56C3433.5 1477.8 3407.7 1436.21 3393.71 1397.17C3389.83 1386.1 3385.94 1376.38 3385.32 1375.78C3384.54 1375.03 3383.14 1378.77 3382.21 1384.01C3379.57 1398.81 3383.92 1412.88 3401.48 1446.53C3416.72 1475.7 3436.14 1504.72 3460.55 1534.79C3475.93 1553.79 3487.75 1570.09 3487.75 1572.49C3487.75 1573.24 3486.5 1573.09 3484.79 1572.34C3481.53 1570.54 3419.98 1553.34 3364.18 1538.53C3303.26 1522.23 3263.62 1509.51 3205.18 1487.52C3191.19 1482.29 3178.45 1477.95 3176.74 1477.95C3167.26 1477.95 3182.65 1491.71 3202.54 1500.98C3237.82 1517.59 3290.98 1535.09 3379.72 1559.32C3465.21 1582.66 3491.32 1591.79 3512.15 1605.25C3516.19 1607.79 3533.44 1623.2 3550.23 1639.21L3580.85 1668.53L3568.1 1675.86C3533.29 1696.2 3444.38 1732.55 3278.85 1794.03L3209.07 1819.91L3196.79 1817.97C3179.85 1815.12 3166.17 1810.19 3138.04 1796.57C3111.46 1783.86 3085.66 1769.5 3068.72 1757.98C3060.48 1752.3 3056.44 1748.26 3052.87 1742.42C3046.49 1731.35 3031.26 1713.25 3014.63 1696.65C2999.4 1681.54 2991.16 1675.56 2988.52 1678.1C2985.41 1681.09 2991.94 1690.22 3026.6 1731.65C3034.06 1740.63 3042.14 1751.55 3044.32 1756.04C3050.38 1767.7 3062.35 1776.08 3111.93 1803.16C3123.74 1809.59 3133.06 1815.42 3132.6 1816.02C3132.29 1816.62 3134.93 1817.97 3138.5 1819.01C3147.99 1821.71 3162.91 1829.18 3163.99 1831.73C3164.46 1833.22 3167.1 1833.97 3172.08 1833.97C3180.94 1834.12 3180 1834.57 3155.14 1844.44C3133.69 1852.97 3115.19 1861.65 3100.74 1870.17C3095.14 1873.46 3071.36 1886.33 3047.89 1898.74C3024.42 1911.01 2995.51 1926.57 2983.86 1933.3C2972.2 1940.03 2954.33 1949.75 2944.38 1955.14C2920.91 1967.56 2873.04 1998.07 2844.91 2018.27C2797.81 2052.22 2757.56 2087.68 2741.86 2109.22C2729.27 2126.42 2726.94 2135.84 2727.09 2166.81C2727.25 2199.57 2730.36 2212.13 2747.45 2245.64L2759.27 2269.13L2751.5 2279.3C2742.95 2290.37 2726.63 2318.34 2700.52 2366.51C2679.07 2406.3 2663.52 2430.98 2645.96 2453.72C2603.84 2508.02 2562.34 2534.95 2512.76 2540.33C2489.45 2542.88 2478.88 2539.89 2457.43 2525.08L2454.17 2522.83L2457.59 2510.87C2459.61 2504.28 2464.11 2493.51 2467.69 2486.93C2486.81 2452.38 2494.42 2432.93 2514.94 2365.02C2549.91 2249.98 2572.91 2187.15 2597.94 2138.39C2613.32 2108.62 2622.65 2095.9 2636.33 2086.78C2641.77 2083.19 2652.8 2074.06 2660.88 2066.58C2669.28 2058.95 2683.73 2048.03 2694.3 2041.3C2713.42 2029.19 2723.05 2021.56 2723.05 2018.72C2723.05 2016.47 2744.81 1996.28 2761.13 1983.56C2783.2 1966.36 2822.06 1926.72 2820.19 1923.58C2817.86 1920.14 2818.17 1919.99 2778.69 1952.3C2769.06 1960.08 2755.54 1970.55 2748.7 1975.63C2741.86 1980.57 2730.05 1990.14 2722.28 1996.87C2704.71 2012.43 2689.33 2023.8 2668.65 2036.82C2659.64 2042.35 2646.43 2052.07 2639.12 2058.36C2619.23 2075.26 2572.29 2109.22 2568.72 2109.22C2568.09 2109.22 2566.85 2106.52 2565.92 2103.08C2563.59 2095.6 2558.77 2092.61 2555.66 2096.65C2554.57 2098.15 2553.64 2100.54 2553.64 2102.19C2553.64 2105.93 2551.15 2110.26 2544.78 2117.29C2541.98 2120.59 2539.65 2124.03 2539.65 2124.92C2539.65 2127.32 2433.65 2228.29 2420.75 2238.16C2407.54 2248.34 2401.63 2251.33 2395.73 2250.88C2391.53 2250.58 2391.22 2250.88 2391.69 2255.82C2393.08 2275.11 2392.77 2277.21 2386.71 2288.72C2378.79 2303.68 2366.51 2320.89 2339.15 2355.89C2304.8 2399.87 2286 2420.81 2248.23 2457.16C2202.07 2501.89 2178.91 2519.09 2144.87 2534.65C2113.63 2548.86 2087.67 2554.25 2057.06 2553.05C2034.21 2552.15 2023.95 2549.91 2005.45 2541.53C1982.61 2531.36 1972.66 2518.94 1976.86 2505.78C1979.65 2496.65 1991 2483.19 2006.08 2471.37C2013.54 2465.39 2024.57 2456.71 2030.48 2452.08C2036.23 2447.44 2046.64 2437.42 2053.48 2430.09C2065.91 2416.62 2070.42 2410.34 2097.47 2369.2C2105.39 2357.24 2122.33 2332.55 2135.23 2314.6C2165.54 2272.27 2184.5 2243.85 2215.59 2193.59C2229.58 2171.15 2247.45 2143.62 2255.07 2132.55C2273.72 2105.93 2275.58 2104.43 2364.18 2049.53C2391.84 2032.33 2411.27 2017.97 2440.02 1993.14C2450.59 1984.16 2465.51 1972.19 2473.28 1966.51C2481.21 1960.82 2496.75 1947.21 2507.79 1936.29C2530.48 1913.7 2526.13 1916.1 2578.2 1897.55C2612.55 1885.28 2633.06 1876.31 2651.56 1865.09C2660.57 1859.55 2676.43 1851.62 2686.53 1847.29C2711.71 1836.81 2724.76 1830.53 2755.07 1813.78C2769.21 1805.85 2783.67 1798.07 2786.93 1796.42C2792.99 1793.58 2794.86 1789.99 2791.13 1788.65C2790.04 1788.35 2785.22 1789.54 2780.56 1791.49C2775.9 1793.28 2767.82 1796.27 2762.69 1798.22C2757.56 1800.01 2730.67 1811.08 2702.85 1822.75C2675.03 1834.42 2647.83 1845.79 2642.23 1847.88C2595.45 1865.54 2582.24 1870.92 2570.74 1877.2C2539.03 1894.41 2521 1900.39 2521 1893.96C2521 1890.37 2517.11 1888.87 2514.78 1891.56C2513.54 1893.06 2513.23 1896.2 2514.01 1900.99L2514.94 1908.32L2498.46 1922.68C2489.45 1930.61 2470.64 1945.27 2456.81 1955.44C2442.98 1965.46 2428.21 1976.38 2423.86 1979.82C2419.66 1983.26 2399.61 1996.43 2379.56 2009.29C2359.51 2022.16 2329.36 2042.35 2312.73 2054.17C2296.1 2065.99 2277.6 2079 2271.54 2083.04C2265.64 2086.93 2258.95 2091.86 2256.78 2093.66L2252.89 2097.1L2245.43 2091.57C2239.52 2087.23 2237.81 2084.83 2237.04 2080.35C2236.11 2074.06 2233.15 2071.97 2229.58 2074.81C2227.71 2076.31 2227.25 2080.2 2227.25 2091.86C2227.25 2100.09 2227.87 2108.02 2228.64 2109.07C2229.58 2110.56 2229.27 2113.11 2227.71 2116.55C2226.47 2119.54 2225.23 2123.28 2224.91 2124.92C2224.14 2128.81 2204.4 2146.91 2183.73 2163.07C2162.59 2179.37 2119.23 2216.77 2089.69 2244C2056.28 2274.66 2033.43 2294.56 2007.01 2315.8C1921.68 2384.46 1848.47 2423.21 1785.06 2433.08C1758.79 2437.27 1714.96 2435.32 1698.8 2429.49C1680.61 2422.76 1652.17 2399.42 1648.44 2388.05C1647.51 2385.21 1649.22 2383.56 1658.7 2376.98C1677.66 2363.67 1695.38 2349.01 1721.03 2324.63C1754.44 2293.21 1778.07 2265.84 1778.07 2258.66C1778.07 2254.32 1802.93 2226.35 1871.32 2153.35C1891.37 2131.95 1919.81 2101.29 1934.42 2085.28C1949.03 2069.28 1965.2 2052.37 1970.17 2047.89C1982.76 2036.67 2002.81 2023.8 2030.32 2009.29C2058.76 1994.18 2080.06 1981.32 2098.71 1968.3C2106.48 1962.77 2129.17 1948.86 2148.76 1937.49C2207.04 1903.68 2258.49 1876.16 2432.25 1786.1L2499.71 1751.1L2545.71 1745.56C2649.85 1733 2691.04 1724.47 2757.25 1701.58C2807.29 1684.38 2862.94 1661.49 2883.14 1650.13C2888.74 1646.98 2898.22 1641.9 2904.28 1639.06L2915.31 1633.67L2950.13 1646.98C3020.07 1673.61 3062.97 1682.89 3116.43 1682.89C3166.48 1682.89 3203.01 1676.3 3281.81 1652.97C3335.58 1637.11 3356.26 1633.82 3403.04 1633.37L3434.12 1633.07L3472.05 1651.17C3492.87 1661.2 3510.44 1668.97 3510.9 1668.53C3511.37 1668.08 3505.46 1661.79 3497.85 1654.76C3469.72 1628.88 3438.79 1620.21 3381.28 1622C3340.25 1623.35 3311.03 1628.29 3254.3 1643.84C3236.11 1648.93 3212.49 1654.61 3201.76 1656.71C3124.83 1671.67 3051.93 1668.08 2993.18 1646.24C2976.09 1639.8 2935.99 1621.55 2935.99 1620.06C2935.99 1619.46 2945.62 1611.83 2957.43 1603.15C2983.86 1583.56 3005.62 1564.86 3015.41 1553.34C3025.2 1541.97 3025.67 1536.29 3016.34 1541.07C3012.61 1542.87 2992.87 1557.08 2980.13 1566.95C2916.87 1616.32 2792.06 1675.26 2698.5 1699.94C2633.06 1717.29 2534.68 1730.31 2492.25 1727.31C2489.45 1727.16 2487.74 1727.76 2487.89 1728.81C2488.98 1733.75 2463.65 1749.15 2407.54 1777.58C2310.71 1826.64 2249.63 1857.76 2225.69 1870.32C2193.21 1887.23 2129.64 1918.64 2124.98 1919.99C2119.54 1921.48 2113.01 1915.8 2105.08 1902.63C2101.04 1896.05 2097.62 1890.97 2097.31 1891.26C2097 1891.41 2098.55 1901.44 2100.57 1913.4C2102.75 1925.22 2104.46 1935.39 2104.46 1935.99C2104.46 1938.09 2069.49 1964.56 2053.17 1975.03C2034.52 1986.85 1993.64 2006.75 1968.62 2016.32C1893.86 2044.44 1813.97 2060.15 1744.65 2060.3C1700.82 2060.3 1669.27 2055.07 1643 2043.25C1621.86 2033.82 1613.32 2023.05 1613.32 2005.85V1996.28L1646.73 1980.12C1665.07 1971.15 1688.39 1958.58 1698.49 1952.15C1714.81 1941.68 1761.9 1906.37 1784.28 1887.82C1805.89 1870.02 1857.33 1836.36 1911.73 1804.8C2039.34 1730.31 2178.91 1637.26 2241.54 1584.61C2284.44 1548.4 2310.24 1533.15 2364.8 1511.75C2463.03 1473.01 2688.08 1373.98 2785.22 1326.71C2857.18 1291.86 2928.37 1244.74 2995.05 1187.74C3033.59 1154.98 3052.71 1144.96 3093.43 1136.28C3150.78 1123.87 3222.9 1118.63 3553.8 1102.48C3765.96 1092.16 3792.53 1090.21 3981.22 1070.46C4055.36 1062.69 4094.22 1059.1 4163.85 1053.86C4255.08 1046.83 4269.38 1045.03 4377.56 1026.78C4525.37 1001.8 4578.83 991.182 4721.98 959.02C4887.97 921.623 4955.27 910.553 5126.71 892.303C5220.74 882.281 5299.23 873.006 5373.37 863.133C5403.83 859.094 5482.16 848.922 5547.44 840.695C5764.11 813.17 5882.69 796.117 5937.09 784.449C5960.41 779.363 5966.31 776.67 5959.63 774.277C5957.14 773.379 5933.05 773.379 5923.26 774.426ZM1725.07 1918.94C1717.45 1924.17 1695.69 1937.04 1667.87 1952.75C1652.17 1961.57 1631.66 1973.54 1622.02 1979.37C1606.63 1988.8 1605.39 1989.25 1610.21 1984.31C1619.69 1974.59 1669.42 1944.52 1712.01 1922.83C1726.62 1915.35 1733.3 1913.25 1725.07 1918.94ZM2986.34 2061.95C3006.7 2084.53 3017.89 2099.79 3028.15 2119.24C3038.57 2138.99 3044.01 2154.99 3042.76 2163.22C3041.67 2170.7 3035.61 2182.96 3029.24 2190.29C3018.83 2202.26 2975.31 2226.5 2933.65 2243.4C2905.99 2254.62 2880.81 2262.4 2851.74 2268.68L2825.63 2274.36L2811.02 2268.68C2782.89 2258.06 2767.19 2244.75 2755.54 2221.86C2745.9 2202.86 2741.39 2183.71 2742.01 2165.16C2742.48 2151.85 2743.1 2149.16 2747.61 2140.18C2756.16 2123.73 2776.67 2109.07 2822.52 2086.93C2871.79 2063.29 2915.94 2048.63 2944.53 2046.54C2973.29 2044.29 2968.94 2042.8 2986.34 2061.95ZM1742.16 2283.64C1728.17 2303.09 1679.06 2347.81 1661.03 2357.69L1654.66 2360.98L1658.39 2355.89C1667.71 2343.33 1747.45 2269.28 1749.62 2271.37C1750.09 2271.67 1746.67 2277.36 1742.16 2283.64ZM2059.08 2404.21C2057.06 2407.8 2047.26 2418.72 2037.01 2428.59C2024.73 2440.41 2021.15 2443.55 2026.13 2437.57C2037.63 2423.8 2061.1 2397.93 2061.87 2397.93C2062.34 2397.93 2061.1 2400.77 2059.08 2404.21Z" fill="#7A6050"/>
<path d="M3029.24 1760.67C3029.24 1761.42 3030.33 1762.17 3031.73 1762.17C3032.97 1762.17 3033.59 1761.42 3033.13 1760.67C3032.66 1759.78 3031.57 1759.18 3030.64 1759.18C3029.86 1759.18 3029.24 1759.78 3029.24 1760.67Z" fill="#7A6050"/>
<path d="M2509.03 1798.22C2506.39 1800.76 2508.25 1804.65 2511.05 1802.41C2513.38 1800.61 2514.01 1796.57 2511.98 1796.57C2511.36 1796.57 2509.96 1797.32 2509.03 1798.22Z" fill="#7A6050"/>
<path d="M3136.48 1832.33C3136.48 1834.72 3140.37 1836.51 3143.32 1835.47C3145.96 1834.57 3145.81 1834.27 3141.46 1832.77C3138.66 1831.88 3136.48 1831.73 3136.48 1832.33Z" fill="#7A6050"/>
<path d="M4502.67 3671.23C4479.51 3675.12 4445.01 3686.04 4419.83 3697.56L4399.78 3706.69L4371.65 3699.81C4345.69 3693.52 4341.34 3692.93 4319.74 3692.33C4258.19 3690.38 4200.53 3706.24 4143.02 3740.35C4112.71 3758.45 4094.84 3771.46 4036.86 3817.98L3996.14 3850.59L3906.31 3879.46C3754.92 3928.23 3704.41 3948.42 3646.12 3982.98L3623.43 3996.59L3570.74 3997.64C3516.65 3998.69 3458.68 4001.38 3409.26 4005.27C3343.67 4010.5 3333.72 4010.8 3284.92 4010.06C3220.41 4009.01 3182.49 4004.67 3122.34 3991.81C3014.48 3968.62 2909.72 3925.84 2759.58 3843.41C2671.61 3795.24 2612.86 3770.71 2488.36 3730.02C2368.06 3690.83 2329.52 3684.1 2203.15 3679.91C2144.71 3677.97 2034.36 3677.97 2008.72 3679.91C1947.95 3684.4 1905.36 3695.02 1838.68 3721.8C1801.38 3736.76 1771.85 3746.33 1735.01 3755.3C1642.38 3778.04 1607.1 3798.69 1343.65 3984.48C1247.75 4052.09 1221.8 4070.19 983.843 4233.99C723.661 4412.9 665.221 4454.64 665.221 4460.92C665.221 4464.21 672.215 4461.52 688.69 4452.09C770.288 4405.27 1059.38 4208.71 1397.12 3970.41C1561.4 3854.48 1606.32 3825.16 1652.95 3803.47C1677.2 3792.1 1694.29 3785.97 1727.71 3776.4C1743.87 3771.76 1758.17 3767.72 1759.42 3767.27C1764.23 3765.78 1711.08 3811.25 1695.69 3821.72C1678.75 3833.39 1634.45 3878.57 1591.4 3928.08C1572.59 3949.77 1565.76 3959.2 1567.31 3960.69C1569.49 3962.79 1577.1 3956.2 1626.06 3909.53C1745.27 3795.69 1812.73 3748.27 1891.06 3723.29C1927.12 3711.77 1960.22 3705.64 2013.54 3700.55C2041.51 3697.86 2209.68 3697.86 2242.01 3700.55C2329.52 3707.88 2393.08 3720.15 2470.49 3744.83C2578.35 3779.39 2660.11 3813.79 2748.85 3862.11C2875.52 3931.22 2958.06 3967.57 3041.67 3991.51C3102.14 4008.71 3138.5 4015.74 3230.52 4027.71L3292.69 4035.64L3346.31 4031.45C3444.69 4023.52 3467.85 4022.32 3526.6 4021.42C3589.24 4020.53 3622.65 4022.02 3653.43 4026.96C3678.92 4031.15 3772.17 4057.48 3849.73 4082.31C3901.33 4098.91 3904.91 4097.57 3812.58 4096.52C3731.3 4095.47 3717.77 4096.07 3702.23 4101.01C3691.51 4104.45 3680.78 4113.12 3667.57 4129.43L3655.45 4144.39L3656.38 4184.03C3657.94 4255.83 3663.22 4281.26 3680.16 4298.17C3691.51 4309.68 3700.68 4312.53 3729.9 4314.02C3757.72 4315.52 3759.9 4316.72 3743.42 4320.9C3733.47 4323.3 3714.98 4325.69 3663.38 4330.63C3620.63 4334.82 3569.19 4341.7 3466.14 4356.95C3418.74 4363.99 3379.26 4369.37 3378.17 4368.92C3377.08 4368.62 3370.55 4361.44 3363.56 4353.22C3350.66 4337.66 3343.2 4325.54 3343.2 4320.16C3343.2 4314.32 3338.85 4306.69 3335.58 4306.69C3329.83 4306.69 3329.06 4311.18 3332.94 4324.79C3336.67 4338.7 3340.09 4344.09 3356.88 4363.54C3362.94 4370.57 3367.76 4376.4 3367.6 4376.55C3367.14 4376.85 3306.99 4372.96 3294.24 4371.76C3258.18 4368.17 3202.7 4356.81 3110.84 4333.77L3045.56 4317.46L2986.5 4315.82C2875.84 4312.68 2832.94 4313.57 2792.22 4320.31C2737.2 4329.13 2627.93 4355.76 2618.14 4362.64C2615.5 4364.43 2615.34 4365.03 2617.36 4367.28C2620.78 4371.32 2640.52 4369.37 2677.2 4361.14C2786.93 4337.06 2843.04 4330.63 2926.97 4332.72C3001.73 4334.52 3040.9 4340.65 3164.77 4369.67C3240.77 4387.47 3259.58 4390.61 3299.21 4391.51C3347.24 4392.86 3364.8 4391.06 3504.07 4371.02C3685.14 4344.99 3722.44 4340.5 3816.47 4332.87C3923.56 4324.19 3921.07 4324.94 3964.9 4292.48C3980.13 4281.26 3997.39 4272.14 4010.6 4268.55C4015.57 4267.05 4027.85 4262.71 4037.8 4258.82C4069.97 4246.11 4093.13 4235.79 4194.93 4189.26C4258.19 4160.39 4315.54 4136.01 4355.02 4121.2C4383.15 4110.73 4428.85 4087.24 4482.47 4055.68C4545.57 4018.43 4578.99 4000.78 4611.63 3986.72C4665.4 3963.83 4703.48 3955.9 4767.05 3954.11C4813.52 3952.76 4838.86 3956.65 4867.3 3969.37C4899.78 3983.73 4929.78 4010.06 4926.21 4020.83C4924.03 4027.56 4891.39 4050.59 4805.6 4106.39C4771.09 4128.68 4719.03 4162.79 4689.96 4181.79C4609.92 4234.44 4562.51 4262.86 4482.47 4305.94C4372.58 4365.18 4320.83 4396.6 4235.34 4456.43C4161.05 4508.49 4128.41 4527.19 4083.8 4543.79C4058.62 4553.22 4042.15 4557.41 3939.26 4580.29C3653.9 4644.02 3605.71 4655.69 3546.03 4675.13C3492.72 4692.49 3459.92 4705.5 3398.38 4734.07C3298.44 4780.44 3275.9 4788.52 3237.2 4792.11C3214.04 4794.21 3159.8 4787.18 3097.78 4774.01C3051.62 4764.14 3006.7 4753.52 2852.06 4715.82C2416.09 4609.31 2258.64 4577 2109.12 4563.09C2090.47 4561.29 2059.08 4560.55 1994.88 4559.95L1906.29 4559.2L1881.42 4569.22C1808.69 4598.24 1697.71 4658.23 1616.73 4712.53C1576.79 4739.16 1560.32 4752.92 1483.54 4823.53C1258.63 5030.56 747.752 5519.27 716.356 5557.41C709.828 5565.34 713.247 5565.79 723.039 5558.46C757.854 5532.28 841.628 5454.35 1178.12 5134.67C1417.01 4907.74 1452.45 4874.54 1512.29 4822.03C1601.81 4743.5 1652.48 4708.19 1758.64 4650.15C1861.84 4593.76 1913.6 4578.35 2000.32 4578.5C2051.15 4578.65 2099.49 4583.43 2196.16 4597.79C2368.22 4623.37 2446.08 4639.68 2800.77 4724.8C3008.26 4774.61 3067.79 4788.22 3122.18 4798.84C3175.65 4809.17 3189.33 4810.96 3220.41 4811.86C3269.06 4813.2 3283.98 4808.57 3398.38 4755.01C3478.89 4717.47 3510.44 4705.05 3562.66 4690.54C3657.63 4663.91 3824.09 4623.97 3970.19 4592.41C4104.32 4563.54 4121.88 4555.76 4242.34 4473.19C4340.72 4405.72 4380.98 4381.19 4496.46 4317.91C4590.95 4266.15 4651.73 4229.65 4707.99 4191.06C4727.11 4177.9 4771.09 4149.17 4805.75 4127.04C4897.92 4068.25 4909.11 4060.62 4924.03 4046.41C4934.29 4036.68 4937.86 4032.05 4939.88 4026.36C4945.64 4010.21 4942.84 4001.38 4927.14 3986.57C4908.8 3969.07 4889.06 3956.95 4857.51 3943.79C4854.71 3942.74 4852.38 3941.1 4852.38 3940.35C4852.38 3938.55 4880.98 3920.3 4913.77 3901.3C4986.36 3859.27 5025.99 3829.95 5035.94 3811.25C5039.82 3803.92 5039.67 3794.35 5035.63 3786.87C5030.81 3778.04 5014.96 3763.08 5000.66 3753.81C4955.89 3725.09 4892.95 3710.73 4831.09 3715.51C4802.18 3717.61 4789.74 3720 4749.33 3730.17L4717 3738.4L4700.37 3723.59C4679.08 3704.74 4669.76 3698.16 4652.66 3689.63C4634.94 3680.96 4614.27 3674.53 4591.73 3670.94C4567.33 3666.9 4527.7 3667.05 4502.67 3671.23ZM4576.19 3689.04C4610.07 3691.88 4635.25 3700.26 4663.23 3717.76C4679.08 3727.78 4688.1 3735.71 4687.32 3739.3C4686.7 3743.04 4675.2 3750.07 4637.89 3769.67C4562.98 3809.31 4498.17 3849.1 4410.19 3909.53C4297.36 3987.17 4270.16 4001.08 4175.5 4030.7C4097.63 4054.93 4065.62 4068.84 4014.64 4100.26C3996.14 4111.63 3981.84 4118.81 3974.85 4120.3C3970.81 4121.2 3968.01 4120.15 3957.75 4114.02C3951.07 4109.98 3929 4098.16 3908.95 4087.54C3888.9 4077.07 3871.96 4068.1 3871.34 4067.5C3870.71 4066.9 3880.51 4063.46 3893.09 4059.87C3938.01 4046.86 4005.31 4009.76 4103.54 3943.64C4160.89 3905.04 4202.39 3874.98 4255.55 3833.24C4311.5 3789.11 4394.03 3733.02 4429.62 3714.47C4457.44 3700.11 4505.63 3689.48 4551.63 3687.69C4555.05 3687.54 4566.09 3688.14 4576.19 3689.04ZM4355.49 3716.26C4363.88 3717.46 4371.18 3718.8 4371.65 3719.25C4374.29 3721.95 4362.32 3732.12 4336.37 3749.47C4316.16 3762.93 4296.11 3777.59 4247.78 3814.54C4120.95 3911.63 4005.31 3987.92 3926.51 4026.51C3907.08 4035.94 3894.03 4041.02 3870.56 4048.35L3839.78 4057.92L3814.92 4049.85C3779.48 4038.48 3734.25 4025.61 3686.69 4013.8L3645.5 4003.32L3657.16 3998.09C3663.53 3995.25 3683.89 3985.97 3702.23 3977.6C3791.29 3936.91 3873.51 3907.29 3993.81 3872.88C4004.38 3869.89 4006.87 3868.24 4045.88 3836.68C4121.1 3776.1 4160.43 3750.37 4205.03 3732.12C4252.28 3712.82 4298.13 3708.03 4355.49 3716.26ZM4954.96 3751.56C4998.95 3772.96 5014.18 3783.43 5022.57 3797.79L5026.61 3804.82L5021.48 3809.01C4989.47 3835.19 4954.49 3857.18 4861.71 3909.83L4822.07 3932.42L4770.78 3933.17C4729.59 3933.91 4716.07 3934.66 4702.39 3936.91C4637.43 3948.13 4585.05 3971.16 4470.97 4039.38C4408.17 4076.77 4363.72 4099.21 4323.16 4113.72C4281.19 4128.98 4233.48 4149.47 4147.37 4189.71C4058.78 4231.15 4017.9 4248.8 4003.29 4252.09C3998.01 4253.29 3993.5 4254.04 3993.19 4253.74C3992.88 4253.44 3994.59 4246.86 3996.76 4239.23C4000.03 4228.31 4001.12 4220.68 4001.74 4204.97C4002.67 4181.19 4000.96 4172.36 3991.01 4152.17C3987.44 4144.99 3984.95 4138.85 3985.26 4138.55C3986.97 4137.21 4035.78 4108.79 4046.5 4102.95C4080.54 4084.4 4106.8 4074.08 4172.39 4053.14C4227.88 4035.49 4249.64 4027.41 4278.39 4014.24C4312.59 3998.54 4346.78 3977.89 4399.32 3941.39C4551.32 3835.93 4644.73 3784.92 4746.85 3751.71C4792.85 3736.61 4791.76 3736.76 4864.04 3737.2L4926.21 3737.5L4954.96 3751.56ZM3823.46 4107.14C3854.86 4109.98 3898.38 4115.97 3915.63 4119.85C3950.14 4127.63 3975 4149.32 3984.17 4179.39C3987.28 4189.71 3987.44 4209.16 3984.33 4220.68C3974.23 4258.52 3939.88 4294.13 3904.91 4302.95C3891.39 4306.24 3853 4307.29 3807.14 4305.35C3736.74 4302.35 3698.5 4298.47 3691.35 4293.53C3677.21 4283.36 3668.51 4253.89 3666.95 4210.81C3665.71 4172.66 3670.06 4144.54 3680.01 4126.74C3686.85 4114.92 3700.06 4110.58 3742.64 4106.39C3751.66 4105.49 3761.14 4104.45 3763.63 4104.15C3770.31 4103.25 3795.64 4104.6 3823.46 4107.14Z" fill="#7A6050"/>
<path d="M1921 3302.4C1922.07 3302.4 1922.6 3304 1922.6 3307.2C1922.6 3310.4 1922.07 3312 1921 3312C1910.87 3312 1899.67 3311.73 1887.4 3311.2C1875.13 3310.67 1862.87 3310.4 1850.6 3310.4C1837.27 3310.4 1824.2 3310.67 1811.4 3311.2C1798.6 3311.73 1787.4 3312 1777.8 3312C1776.2 3312 1775.4 3310.4 1775.4 3307.2C1775.4 3304 1776.2 3302.4 1777.8 3302.4C1800.2 3302.4 1814.6 3298.93 1821 3292C1827.4 3285.07 1830.6 3270.13 1830.6 3247.2V3068C1830.6 3051.47 1830.07 3040 1829 3033.6C1827.93 3026.67 1824.47 3022.4 1818.6 3020.8C1812.73 3019.2 1802.87 3018.4 1789 3018.4H1696.2C1681.8 3018.4 1671.67 3019.2 1665.8 3020.8C1659.93 3022.4 1656.2 3026.67 1654.6 3033.6C1653.53 3040.53 1653 3052.53 1653 3069.6V3247.2C1653 3270.13 1655.93 3285.07 1661.8 3292C1668.2 3298.93 1682.87 3302.4 1705.8 3302.4C1706.87 3302.4 1707.4 3304 1707.4 3307.2C1707.4 3310.4 1706.87 3312 1705.8 3312C1695.67 3312 1684.47 3311.73 1672.2 3311.2C1659.93 3310.67 1647.67 3310.4 1635.4 3310.4C1622.07 3310.4 1609 3310.67 1596.2 3311.2C1583.93 3311.73 1572.73 3312 1562.6 3312C1561 3312 1560.2 3310.4 1560.2 3307.2C1560.2 3304 1561 3302.4 1562.6 3302.4C1585.53 3302.4 1599.93 3298.93 1605.8 3292C1612.2 3285.07 1615.4 3270.13 1615.4 3247.2V3068C1615.4 3044.53 1612.2 3029.6 1605.8 3023.2C1599.93 3016.27 1585.8 3012.8 1563.4 3012.8C1561.8 3012.8 1561 3011.2 1561 3008C1561 3004.8 1561.8 3003.2 1563.4 3003.2H1921C1922.07 3003.2 1922.6 3004.8 1922.6 3008C1922.6 3011.2 1922.07 3012.8 1921 3012.8C1898.07 3012.8 1883.4 3016.53 1877 3024C1871.13 3031.47 1868.2 3046.67 1868.2 3069.6V3247.2C1868.2 3270.13 1871.13 3285.07 1877 3292C1883.4 3298.93 1898.07 3302.4 1921 3302.4ZM2193.59 3322.4C2162.13 3322.4 2134.66 3314.67 2111.19 3299.2C2088.26 3283.73 2070.39 3263.2 2057.59 3237.6C2045.33 3211.47 2039.19 3183.47 2039.19 3153.6C2039.19 3125.87 2044.26 3101.87 2054.39 3081.6C2064.53 3061.33 2077.86 3044.8 2094.39 3032C2111.46 3018.67 2129.86 3008.8 2149.59 3002.4C2169.33 2996 2188.79 2992.8 2207.99 2992.8C2239.99 2992.8 2267.46 3000.8 2290.39 3016.8C2313.33 3032.8 2330.93 3053.33 2343.19 3078.4C2355.46 3103.47 2361.59 3129.87 2361.59 3157.6C2361.59 3191.73 2353.86 3221.07 2338.39 3245.6C2322.93 3270.13 2302.39 3289.07 2276.79 3302.4C2251.73 3315.73 2223.99 3322.4 2193.59 3322.4ZM2215.99 3308C2245.86 3308 2269.86 3298.13 2287.99 3278.4C2306.13 3258.13 2315.19 3224.8 2315.19 3178.4C2315.19 3145.87 2309.59 3116.8 2298.39 3091.2C2287.19 3065.6 2271.46 3045.33 2251.19 3030.4C2231.46 3015.47 2208.26 3008 2181.59 3008C2151.19 3008 2127.46 3018.67 2110.39 3040C2093.33 3060.8 2084.79 3090.93 2084.79 3130.4C2084.79 3161.87 2090.13 3191.2 2100.79 3218.4C2111.99 3245.6 2127.46 3267.47 2147.19 3284C2166.93 3300 2189.86 3308 2215.99 3308ZM2638.84 3321.6C2602.58 3321.6 2572.98 3313.87 2550.04 3298.4C2527.64 3282.4 2511.11 3262.4 2500.44 3238.4C2489.78 3213.87 2484.44 3189.07 2484.44 3164C2484.44 3137.33 2489.51 3113.6 2499.64 3092.8C2509.78 3072 2523.11 3054.4 2539.64 3040C2556.71 3025.6 2575.38 3014.67 2595.64 3007.2C2615.91 2999.73 2635.91 2996 2655.64 2996C2670.58 2996 2684.98 2998.13 2698.84 3002.4C2712.71 3006.13 2724.18 3011.47 2733.24 3018.4C2742.31 3025.33 2746.84 3033.07 2746.84 3041.6C2746.84 3048 2744.71 3053.6 2740.44 3058.4C2736.71 3062.67 2731.11 3064.8 2723.64 3064.8C2716.18 3064.8 2709.78 3062.4 2704.44 3057.6C2699.11 3052.8 2694.84 3047.73 2691.64 3042.4C2685.24 3033.33 2677.51 3026.13 2668.44 3020.8C2659.91 3014.93 2647.11 3012 2630.04 3012C2597.51 3012 2572.71 3024 2555.64 3048C2538.58 3071.47 2530.04 3102.4 2530.04 3140.8C2530.04 3168 2534.84 3193.6 2544.44 3217.6C2554.04 3241.07 2568.71 3260.27 2588.44 3275.2C2608.71 3289.6 2634.84 3296.8 2666.84 3296.8C2680.71 3296.8 2694.84 3294.93 2709.24 3291.2C2724.18 3286.93 2737.51 3279.47 2749.24 3268.8C2750.84 3267.73 2752.44 3268.27 2754.04 3270.4C2756.18 3272.53 2756.44 3274.13 2754.84 3275.2C2736.71 3291.73 2718.31 3303.73 2699.64 3311.2C2680.98 3318.13 2660.71 3321.6 2638.84 3321.6ZM2848.63 3312C2846.49 3312 2845.43 3310.4 2845.43 3307.2C2845.43 3304 2846.49 3302.4 2848.63 3302.4C2854.49 3302.4 2860.63 3300 2867.03 3295.2C2873.43 3289.87 2880.89 3280.27 2889.43 3266.4C2897.96 3252.53 2908.09 3232.53 2919.83 3206.4L3011.83 2991.2C3012.89 2989.07 3014.49 2988 3016.63 2988C3019.29 2988 3020.89 2989.07 3021.43 2991.2L3120.63 3202.4C3133.96 3230.13 3144.63 3251.2 3152.63 3265.6C3160.63 3280 3168.36 3289.87 3175.83 3295.2C3183.29 3300 3192.89 3302.4 3204.63 3302.4C3207.29 3302.4 3208.63 3304 3208.63 3307.2C3208.63 3310.4 3207.29 3312 3204.63 3312C3192.89 3312 3180.89 3311.47 3168.63 3310.4C3156.36 3309.33 3144.36 3308.8 3132.63 3308.8C3123.03 3308.8 3112.63 3309.33 3101.43 3310.4C3090.23 3311.47 3080.09 3312 3071.03 3312C3068.89 3312 3067.83 3310.4 3067.83 3307.2C3067.83 3304 3068.89 3302.4 3071.03 3302.4C3083.29 3302.4 3092.89 3298.13 3099.83 3289.6C3106.76 3280.53 3105.16 3265.6 3095.03 3244.8L3001.43 3045.6L3015.83 3030.4L2938.23 3213.6C2928.09 3237.6 2923.03 3256 2923.03 3268.8C2923.56 3281.6 2927.56 3290.4 2935.03 3295.2C2942.49 3300 2951.29 3302.4 2961.43 3302.4C2964.09 3302.4 2965.43 3304 2965.43 3307.2C2965.43 3310.4 2964.09 3312 2961.43 3312C2951.83 3312 2943.29 3311.47 2935.83 3310.4C2928.89 3309.33 2919.03 3308.8 2906.23 3308.8C2896.63 3308.8 2888.89 3309.07 2883.03 3309.6C2877.69 3310.13 2872.63 3310.67 2867.83 3311.2C2863.03 3311.73 2856.63 3312 2848.63 3312ZM3430.63 3321.6C3399.16 3321.6 3372.76 3314.4 3351.43 3300C3330.63 3285.07 3314.89 3265.87 3304.23 3242.4C3293.56 3218.93 3288.23 3194.13 3288.23 3168C3288.23 3135.47 3295.69 3106.4 3310.63 3080.8C3325.56 3054.67 3345.56 3034.13 3370.63 3019.2C3396.23 3003.73 3423.96 2996 3453.83 2996C3484.23 2996 3506.89 3004.27 3521.83 3020.8C3536.76 3037.33 3544.23 3059.47 3544.23 3087.2C3544.23 3094.13 3543.43 3099.2 3541.83 3102.4C3540.76 3105.6 3538.36 3107.2 3534.63 3107.2H3497.03C3499.69 3074.13 3494.36 3050.13 3481.03 3035.2C3468.23 3019.73 3450.63 3012 3428.23 3012C3398.36 3012 3375.16 3023.47 3358.62 3046.4C3342.09 3068.8 3333.83 3099.73 3333.83 3139.2C3333.83 3169.07 3338.63 3196 3348.23 3220C3357.83 3243.47 3371.96 3262.13 3390.63 3276C3409.29 3289.33 3431.96 3296 3458.62 3296C3477.29 3296 3492.49 3293.33 3504.23 3288C3516.49 3282.13 3528.23 3275.73 3539.43 3268.8C3540.49 3267.73 3541.83 3268.53 3543.43 3271.2C3545.56 3273.33 3546.09 3275.2 3545.03 3276.8C3526.36 3292.8 3507.43 3304.27 3488.23 3311.2C3469.56 3318.13 3450.36 3321.6 3430.63 3321.6ZM3323.43 3108L3322.63 3098.4L3505.03 3095.2V3107.2L3323.43 3108ZM3994.34 3164.8V3150.4H4209.54V3164.8H3994.34ZM3976.74 3247.2V3068C3976.74 3044.53 3973.54 3029.6 3967.14 3023.2C3961.28 3016.27 3947.14 3012.8 3924.74 3012.8C3923.14 3012.8 3922.34 3011.2 3922.34 3008C3922.34 3004.8 3923.14 3003.2 3924.74 3003.2C3934.34 3003.2 3945.28 3003.47 3957.54 3004C3970.34 3004.53 3983.41 3004.8 3996.74 3004.8C4009.01 3004.8 4021.28 3004.53 4033.54 3004C4046.34 3003.47 4057.54 3003.2 4067.14 3003.2C4068.21 3003.2 4068.74 3004.8 4068.74 3008C4068.74 3011.2 4068.21 3012.8 4067.14 3012.8C4044.21 3012.8 4029.54 3016.53 4023.14 3024C4017.28 3031.47 4014.34 3046.67 4014.34 3069.6V3247.2C4014.34 3270.13 4017.28 3285.07 4023.14 3292C4029.54 3298.93 4044.21 3302.4 4067.14 3302.4C4068.21 3302.4 4068.74 3304 4068.74 3307.2C4068.74 3310.4 4068.21 3312 4067.14 3312C4057.01 3312 4045.81 3311.73 4033.54 3311.2C4021.28 3310.67 4009.01 3310.4 3996.74 3310.4C3983.41 3310.4 3970.34 3310.67 3957.54 3311.2C3945.28 3311.73 3934.08 3312 3923.94 3312C3922.34 3312 3921.54 3310.4 3921.54 3307.2C3921.54 3304 3922.34 3302.4 3923.94 3302.4C3946.88 3302.4 3961.28 3298.93 3967.14 3292C3973.54 3285.07 3976.74 3270.13 3976.74 3247.2ZM4191.94 3247.2V3068C4191.94 3044.53 4188.74 3029.6 4182.34 3023.2C4176.48 3016.27 4162.34 3012.8 4139.94 3012.8C4138.34 3012.8 4137.54 3011.2 4137.54 3008C4137.54 3004.8 4138.34 3003.2 4139.94 3003.2C4149.54 3003.2 4160.48 3003.47 4172.74 3004C4185.54 3004.53 4198.61 3004.8 4211.94 3004.8C4224.21 3004.8 4236.48 3004.53 4248.74 3004C4261.54 3003.47 4272.74 3003.2 4282.34 3003.2C4283.41 3003.2 4283.94 3004.8 4283.94 3008C4283.94 3011.2 4283.41 3012.8 4282.34 3012.8C4259.41 3012.8 4244.74 3016.53 4238.34 3024C4232.48 3031.47 4229.54 3046.67 4229.54 3069.6V3247.2C4229.54 3270.13 4232.48 3285.07 4238.34 3292C4244.74 3298.93 4259.41 3302.4 4282.34 3302.4C4283.41 3302.4 4283.94 3304 4283.94 3307.2C4283.94 3310.4 4283.41 3312 4282.34 3312C4272.21 3312 4261.01 3311.73 4248.74 3311.2C4236.48 3310.67 4224.21 3310.4 4211.94 3310.4C4198.61 3310.4 4185.54 3310.67 4172.74 3311.2C4159.94 3311.73 4148.74 3312 4139.14 3312C4137.54 3312 4136.74 3310.4 4136.74 3307.2C4136.74 3304 4137.54 3302.4 4139.14 3302.4C4161.54 3302.4 4175.94 3298.93 4182.34 3292C4188.74 3285.07 4191.94 3270.13 4191.94 3247.2ZM4621.34 3316.8C4619.2 3317.87 4617.07 3318.4 4614.94 3318.4C4608.54 3318.4 4602.67 3312.8 4597.34 3301.6C4592 3290.4 4589.34 3274.13 4589.34 3252.8V3098.4C4589.34 3065.33 4584 3042.4 4573.34 3029.6C4563.2 3016.8 4550.4 3010.4 4534.94 3010.4C4521.6 3010.4 4510.4 3013.6 4501.34 3020C4492.8 3025.87 4486.14 3033.33 4481.34 3042.4C4477.07 3051.47 4473.87 3060 4471.74 3068C4470.67 3073.33 4468.8 3079.73 4466.14 3087.2C4463.47 3094.13 4456.8 3097.6 4446.14 3097.6C4438.14 3097.6 4432 3095.2 4427.74 3090.4C4424 3085.6 4422.14 3080.53 4422.14 3075.2C4422.14 3066.13 4426.94 3057.07 4436.54 3048C4446.14 3038.4 4458.14 3029.6 4472.54 3021.6C4487.47 3013.6 4502.94 3007.2 4518.94 3002.4C4534.94 2997.6 4549.6 2995.2 4562.94 2995.2C4584.8 2995.2 4600.8 3002.4 4610.94 3016.8C4621.07 3030.67 4626.14 3049.87 4626.14 3074.4V3225.6C4626.14 3244.8 4628.27 3258.93 4632.54 3268C4637.34 3276.53 4645.34 3280.8 4656.54 3280.8C4666.67 3280.8 4681.34 3276.8 4700.54 3268.8C4703.2 3267.73 4705.07 3268.8 4706.14 3272C4707.2 3274.67 4706.4 3276.53 4703.74 3277.6L4621.34 3316.8ZM4479.74 3317.6C4460 3317.6 4444.8 3312.27 4434.14 3301.6C4424 3290.4 4418.94 3277.6 4418.94 3263.2C4418.94 3254.13 4421.07 3245.33 4425.34 3236.8C4430.14 3228.27 4438.14 3220 4449.34 3212C4461.07 3204 4477.07 3196.27 4497.34 3188.8L4597.34 3151.2L4598.94 3161.6L4504.54 3197.6C4493.34 3201.87 4484.8 3206.67 4478.94 3212C4473.07 3216.8 4469.07 3222.13 4466.94 3228C4464.8 3233.33 4463.74 3238.93 4463.74 3244.8C4463.74 3256.53 4467.47 3267.2 4474.94 3276.8C4482.94 3286.4 4494.4 3291.2 4509.34 3291.2C4515.2 3291.2 4521.34 3290.4 4527.74 3288.8C4534.14 3286.67 4541.87 3282.93 4550.94 3277.6L4604.54 3246.4L4606.14 3256L4546.14 3293.6C4532.8 3302.13 4521.07 3308.27 4510.94 3312C4500.8 3315.73 4490.4 3317.6 4479.74 3317.6ZM4954.09 3321.6C4917.83 3321.6 4888.23 3313.87 4865.29 3298.4C4842.89 3282.4 4826.36 3262.4 4815.69 3238.4C4805.03 3213.87 4799.69 3189.07 4799.69 3164C4799.69 3137.33 4804.76 3113.6 4814.89 3092.8C4825.03 3072 4838.36 3054.4 4854.89 3040C4871.96 3025.6 4890.63 3014.67 4910.89 3007.2C4931.16 2999.73 4951.16 2996 4970.89 2996C4985.83 2996 5000.23 2998.13 5014.09 3002.4C5027.96 3006.13 5039.43 3011.47 5048.49 3018.4C5057.56 3025.33 5062.09 3033.07 5062.09 3041.6C5062.09 3048 5059.96 3053.6 5055.69 3058.4C5051.96 3062.67 5046.36 3064.8 5038.89 3064.8C5031.43 3064.8 5025.03 3062.4 5019.69 3057.6C5014.36 3052.8 5010.09 3047.73 5006.89 3042.4C5000.49 3033.33 4992.76 3026.13 4983.69 3020.8C4975.16 3014.93 4962.36 3012 4945.29 3012C4912.76 3012 4887.96 3024 4870.89 3048C4853.83 3071.47 4845.29 3102.4 4845.29 3140.8C4845.29 3168 4850.09 3193.6 4859.69 3217.6C4869.29 3241.07 4883.96 3260.27 4903.69 3275.2C4923.96 3289.6 4950.09 3296.8 4982.09 3296.8C4995.96 3296.8 5010.09 3294.93 5024.49 3291.2C5039.43 3286.93 5052.76 3279.47 5064.49 3268.8C5066.09 3267.73 5067.69 3268.27 5069.29 3270.4C5071.43 3272.53 5071.69 3274.13 5070.09 3275.2C5051.96 3291.73 5033.56 3303.73 5014.89 3311.2C4996.23 3318.13 4975.96 3321.6 4954.09 3321.6Z" fill="#3D2B22"/>
</g>
<defs>
<clipPath id="clip0_3_2">
<rect width="6632" height="6383" fill="white"/>
</clipPath>
</defs>
</svg>
